<svg xmlns="http://www.w3.org/2000/svg" viewBox="0 0 800 450" width="800" height="450" role="img" aria-label="Barcelona Duck Store">
  <defs>
    <linearGradient id="fondo" x1="0" y1="0" x2="1" y2="1">
      <stop offset="0" stop-color="#1C232C"/><stop offset="1" stop-color="#0E1116"/>
    </linearGradient>
    <radialGradient id="vignetta" cx="50%" cy="45%" r="70%">
      <stop offset="0" stop-color="#000" stop-opacity="0"/><stop offset="1" stop-color="#000" stop-opacity="0.72"/>
    </radialGradient>
  </defs>
  <rect width="800" height="450" fill="url(#fondo)"/>
  <g><rect x="-45.22" y="55.06" width="34.32" height="36.37" rx="5" fill="#2CA6A4" opacity="0.53" transform="rotate(-2.76 -28.06 73.25)"/><rect x="-56.03" y="102.92" width="36.72" height="36.96" rx="5" fill="#F2B705" opacity="0.22" transform="rotate(2.76 -37.67 121.4)"/><rect x="-53.79" y="302.02" width="37.52" height="37.17" rx="5" fill="#F2B705" opacity="0.44" transform="rotate(7.45 -35.02 320.61)"/><rect x="0.62" y="100.57" width="27.67" height="28.89" rx="5" fill="#A50044" opacity="0.45" transform="rotate(-4.48 14.45 115.01)"/><rect x="5.27" y="151.65" width="36.24" height="35.27" rx="5" fill="#F2B705" opacity="0.44" transform="rotate(6.97 23.39 169.29)"/><rect x="7.65" y="206.22" width="33.92" height="35.63" rx="5" fill="#F2B705" opacity="0.28" transform="rotate(-5.43 24.61 224.04)"/><rect x="-1.09" y="293.77" width="47.16" height="38.26" rx="5" fill="#A50044" opacity="0.21" transform="rotate(6.93 22.49 312.9)"/><rect x="-4.65" y="348.87" width="45.23" height="34.42" rx="5" fill="#3D5A80" opacity="0.49" transform="rotate(0.31 17.97 366.09)"/><rect x="7.54" y="404.88" width="43.21" height="33.25" rx="5" fill="#3D5A80" opacity="0.45" transform="rotate(-5.6 29.14 421.5)"/><rect x="50.55" y="-57.57" width="28.6" height="30.49" rx="5" fill="#3D5A80" opacity="0.5" transform="rotate(-6.9 64.85 -42.33)"/><rect x="54.28" y="-6.74" width="36.75" height="28.56" rx="5" fill="#A50044" opacity="0.4" transform="rotate(-3.66 72.66 7.54)"/><rect x="55.73" y="48.93" width="44.47" height="30.92" rx="5" fill="#E8552E" opacity="0.42" transform="rotate(4.63 77.97 64.39)"/><rect x="52.28" y="156.45" width="46.99" height="30.24" rx="5" fill="#F2B705" opacity="0.48" transform="rotate(0.88 75.77 171.57)"/><rect x="51.67" y="197.22" width="29.9" height="39.94" rx="5" fill="#2CA6A4" opacity="0.32" transform="rotate(5.16 66.62 217.18)"/><rect x="48.68" y="253.65" width="42.11" height="37.36" rx="5" fill="#F2B705" opacity="0.33" transform="rotate(5.1 69.74 272.33)"/><rect x="50.7" y="352.69" width="46.48" height="37.79" rx="5" fill="#F2B705" opacity="0.3" transform="rotate(4.17 73.94 371.58)"/><rect x="51.15" y="449.32" width="34.96" height="42.98" rx="5" fill="#F2B705" opacity="0.47" transform="rotate(-7.34 68.63 470.81)"/><rect x="101.54" y="56.61" width="37.83" height="29.46" rx="5" fill="#F2B705" opacity="0.49" transform="rotate(1.15 120.45 71.34)"/><rect x="97.77" y="106.06" width="43.26" height="38.15" rx="5" fill="#F2B705" opacity="0.28" transform="rotate(-6.34 119.4 125.14)"/><rect x="107.98" y="243.71" width="34.26" height="43.74" rx="5" fill="#3D5A80" opacity="0.27" transform="rotate(-3.15 125.11 265.58)"/><rect x="107.84" y="294.64" width="37.65" height="33.61" rx="5" fill="#F2B705" opacity="0.19" transform="rotate(6.83 126.67 311.45)"/><rect x="103.52" y="397.54" width="41.89" height="41.68" rx="5" fill="#3D5A80" opacity="0.26" transform="rotate(2.79 124.47 418.38)"/><rect x="93.3" y="449.39" width="40.61" height="30.79" rx="5" fill="#F2B705" opacity="0.54" transform="rotate(-8 113.6 464.79)"/><rect x="153.13" y="-49.87" width="30.58" height="42.2" rx="5" fill="#F2B705" opacity="0.3" transform="rotate(-3.67 168.42 -28.77)"/><rect x="149.47" y="51.41" width="28.93" height="42.97" rx="5" fill="#F2B705" opacity="0.47" transform="rotate(0.52 163.93 72.9)"/><rect x="146.87" y="100.92" width="41.46" height="44.93" rx="5" fill="#3D5A80" opacity="0.49" transform="rotate(-3.48 167.6 123.38)"/><rect x="143.37" y="151.25" width="38.49" height="30.7" rx="5" fill="#F2B705" opacity="0.32" transform="rotate(1.86 162.61 166.6)"/><rect x="147.19" y="205.58" width="28.24" height="38.98" rx="5" fill="#3D5A80" opacity="0.3" transform="rotate(-5.59 161.31 225.07)"/><rect x="144.27" y="246.63" width="35.87" height="31.92" rx="5" fill="#F2B705" opacity="0.27" transform="rotate(6.79 162.2 262.59)"/><rect x="146.57" y="294.86" width="37.61" height="38.43" rx="5" fill="#E8552E" opacity="0.21" transform="rotate(-6.44 165.38 314.07)"/><rect x="157.21" y="403.84" width="35.84" height="31.8" rx="5" fill="#2CA6A4" opacity="0.32" transform="rotate(-4.58 175.13 419.74)"/><rect x="149.17" y="446.16" width="43.84" height="29.44" rx="5" fill="#F2B705" opacity="0.39" transform="rotate(1.89 171.09 460.88)"/><rect x="197.14" y="-52.96" width="46.1" height="31.78" rx="5" fill="#E8552E" opacity="0.39" transform="rotate(-4.05 220.19 -37.07)"/><rect x="206.98" y="-1.56" width="31.71" height="36.74" rx="5" fill="#2CA6A4" opacity="0.39" transform="rotate(7.44 222.84 16.81)"/><rect x="201.64" y="49" width="42.36" height="43.63" rx="5" fill="#E8552E" opacity="0.3" transform="rotate(-3.46 222.82 70.81)"/><rect x="193.17" y="155.3" width="33.5" height="28.32" rx="5" fill="#E8552E" opacity="0.38" transform="rotate(-7.04 209.91 169.46)"/><rect x="204.69" y="200.66" width="41.77" height="27.81" rx="5" fill="#3D5A80" opacity="0.23" transform="rotate(4.14 225.58 214.56)"/><rect x="202.59" y="243.51" width="27.9" height="39.33" rx="5" fill="#F2B705" opacity="0.3" transform="rotate(-1.72 216.54 263.18)"/><rect x="202.57" y="342.64" width="34.41" height="27.97" rx="5" fill="#3D5A80" opacity="0.38" transform="rotate(-6.22 219.78 356.63)"/><rect x="192.48" y="407.41" width="38.3" height="46.65" rx="5" fill="#F2B705" opacity="0.52" transform="rotate(6.75 211.63 430.73)"/><rect x="246.19" y="7.2" width="36.79" height="28.09" rx="5" fill="#A50044" opacity="0.33" transform="rotate(6.51 264.59 21.24)"/><rect x="243.01" y="92.34" width="27.95" height="37.71" rx="5" fill="#3D5A80" opacity="0.47" transform="rotate(3.88 256.99 111.2)"/><rect x="243.13" y="245.22" width="42.43" height="27.64" rx="5" fill="#E8552E" opacity="0.49" transform="rotate(-4.13 264.35 259.04)"/><rect x="246.03" y="295.08" width="38.43" height="28.92" rx="5" fill="#E8552E" opacity="0.29" transform="rotate(-7.8 265.24 309.54)"/><rect x="249.33" y="353.76" width="43.57" height="42.75" rx="5" fill="#2CA6A4" opacity="0.35" transform="rotate(-3.72 271.12 375.14)"/><rect x="305.72" y="-42.28" width="37.31" height="31.14" rx="5" fill="#F2B705" opacity="0.35" transform="rotate(1.88 324.38 -26.71)"/><rect x="292.44" y="107.26" width="45.36" height="27.78" rx="5" fill="#A50044" opacity="0.23" transform="rotate(-5.02 315.12 121.15)"/><rect x="303.46" y="157.06" width="35.11" height="35.92" rx="5" fill="#3D5A80" opacity="0.53" transform="rotate(-3.93 321.02 175.02)"/><rect x="306.27" y="257.83" width="28.41" height="39.13" rx="5" fill="#F2B705" opacity="0.33" transform="rotate(0.4 320.47 277.4)"/><rect x="297.18" y="303.35" width="37.43" height="46.19" rx="5" fill="#F2B705" opacity="0.43" transform="rotate(-5.97 315.89 326.45)"/><rect x="296.03" y="346.85" width="43.66" height="38.32" rx="5" fill="#F2B705" opacity="0.46" transform="rotate(2.86 317.86 366.01)"/><rect x="354.17" y="-1.71" width="31.67" height="30.29" rx="5" fill="#F2B705" opacity="0.48" transform="rotate(-6.24 370.01 13.44)"/><rect x="343.62" y="48.59" width="28.95" height="35.55" rx="5" fill="#F2B705" opacity="0.29" transform="rotate(-5.64 358.09 66.37)"/><rect x="352.56" y="107.29" width="27.63" height="47.1" rx="5" fill="#F2B705" opacity="0.27" transform="rotate(-1.48 366.38 130.84)"/><rect x="343.07" y="306.37" width="42.41" height="43.48" rx="5" fill="#E8552E" opacity="0.52" transform="rotate(-6.21 364.27 328.11)"/><rect x="349.03" y="451.77" width="31.93" height="42.65" rx="5" fill="#F2B705" opacity="0.25" transform="rotate(6.95 364.99 473.1)"/><rect x="404.41" y="-45.08" width="44.39" height="35.54" rx="5" fill="#F2B705" opacity="0.52" transform="rotate(1.69 426.6 -27.31)"/><rect x="402.31" y="253.82" width="39.01" height="28.26" rx="5" fill="#3D5A80" opacity="0.4" transform="rotate(-6.21 421.82 267.95)"/><rect x="404.28" y="352.82" width="40.2" height="33.27" rx="5" fill="#F2B705" opacity="0.27" transform="rotate(-1.98 424.38 369.45)"/><rect x="392.64" y="395.99" width="33.74" height="45.3" rx="5" fill="#2CA6A4" opacity="0.5" transform="rotate(-5.67 409.51 418.64)"/><rect x="400.99" y="445.83" width="42.77" height="37.89" rx="5" fill="#A50044" opacity="0.54" transform="rotate(7.16 422.38 464.77)"/><rect x="442.11" y="-52.25" width="34.24" height="41.41" rx="5" fill="#3D5A80" opacity="0.31" transform="rotate(6.28 459.23 -31.55)"/><rect x="445.39" y="151.78" width="47.11" height="31.68" rx="5" fill="#F2B705" opacity="0.25" transform="rotate(6.47 468.94 167.62)"/><rect x="443.15" y="252.82" width="28.24" height="42.05" rx="5" fill="#A50044" opacity="0.34" transform="rotate(-2.34 457.27 273.85)"/><rect x="457.31" y="349.13" width="31.26" height="36.06" rx="5" fill="#F2B705" opacity="0.37" transform="rotate(-0.2 472.94 367.16)"/><rect x="492.35" y="107.81" width="30.89" height="37.4" rx="5" fill="#F2B705" opacity="0.25" transform="rotate(4.8 507.8 126.52)"/><rect x="505.28" y="203.39" width="44.63" height="33.88" rx="5" fill="#F2B705" opacity="0.23" transform="rotate(-5.08 527.59 220.33)"/><rect x="495.2" y="343.72" width="31.5" height="47.43" rx="5" fill="#F2B705" opacity="0.24" transform="rotate(6.5 510.95 367.43)"/><rect x="547.88" y="-2.29" width="34.71" height="46.63" rx="5" fill="#A50044" opacity="0.36" transform="rotate(-5.94 565.24 21.03)"/><rect x="543.23" y="52.25" width="32.53" height="46.16" rx="5" fill="#2CA6A4" opacity="0.28" transform="rotate(7.4 559.49 75.33)"/><rect x="543.71" y="145.85" width="42.64" height="31.9" rx="5" fill="#A50044" opacity="0.33" transform="rotate(-7.93 565.03 161.8)"/><rect x="550.23" y="295.66" width="46.58" height="33.47" rx="5" fill="#F2B705" opacity="0.21" transform="rotate(-4.23 573.52 312.39)"/><rect x="544.98" y="407.89" width="38.77" height="31.1" rx="5" fill="#F2B705" opacity="0.31" transform="rotate(4.25 564.36 423.44)"/><rect x="548.72" y="456.92" width="44.04" height="32.13" rx="5" fill="#E8552E" opacity="0.35" transform="rotate(-4.23 570.75 472.98)"/><rect x="601.76" y="-43.46" width="28.73" height="39.66" rx="5" fill="#F2B705" opacity="0.53" transform="rotate(-6.36 616.12 -23.63)"/><rect x="601.73" y="100.72" width="42.47" height="37.14" rx="5" fill="#A50044" opacity="0.18" transform="rotate(-5.24 622.97 119.29)"/><rect x="596.62" y="146.79" width="28.36" height="35.4" rx="5" fill="#A50044" opacity="0.49" transform="rotate(1.75 610.8 164.49)"/><rect x="600.79" y="206.83" width="34.52" height="34.92" rx="5" fill="#E8552E" opacity="0.41" transform="rotate(-1.6 618.05 224.29)"/><rect x="599.25" y="347.85" width="42.66" height="35.17" rx="5" fill="#F2B705" opacity="0.36" transform="rotate(5.35 620.59 365.43)"/><rect x="603.53" y="454.02" width="30.85" height="39.99" rx="5" fill="#A50044" opacity="0.44" transform="rotate(-5.84 618.95 474.01)"/><rect x="643.91" y="-1.7" width="38.3" height="36.08" rx="5" fill="#2CA6A4" opacity="0.5" transform="rotate(5.88 663.06 16.34)"/><rect x="650.25" y="445.14" width="32.18" height="36.55" rx="5" fill="#F2B705" opacity="0.19" transform="rotate(0.8 666.34 463.41)"/><rect x="692.22" y="-43.46" width="37.64" height="35.97" rx="5" fill="#3D5A80" opacity="0.21" transform="rotate(3.29 711.04 -25.47)"/><rect x="701.19" y="105.96" width="41.05" height="40.38" rx="5" fill="#F2B705" opacity="0.37" transform="rotate(-3.41 721.71 126.15)"/><rect x="694.27" y="297.69" width="46.51" height="34.51" rx="5" fill="#F2B705" opacity="0.31" transform="rotate(-4.26 717.53 314.95)"/><rect x="700.56" y="393.14" width="45.73" height="34.51" rx="5" fill="#F2B705" opacity="0.46" transform="rotate(-2 723.43 410.4)"/><rect x="700.4" y="444.4" width="45.48" height="30.18" rx="5" fill="#F2B705" opacity="0.35" transform="rotate(-1.94 723.14 459.49)"/><rect x="749.07" y="-44.02" width="33.64" height="44.94" rx="5" fill="#3D5A80" opacity="0.19" transform="rotate(-6.94 765.89 -21.54)"/><rect x="750.63" y="4.55" width="40.93" height="34.42" rx="5" fill="#E8552E" opacity="0.37" transform="rotate(4.58 771.09 21.76)"/><rect x="748.73" y="52.08" width="46.53" height="38.79" rx="5" fill="#F2B705" opacity="0.46" transform="rotate(-1.47 772 71.48)"/><rect x="756.74" y="351.87" width="31.76" height="47.06" rx="5" fill="#F2B705" opacity="0.49" transform="rotate(-4.87 772.62 375.4)"/><rect x="744.89" y="395.25" width="42.71" height="37.69" rx="5" fill="#E8552E" opacity="0.49" transform="rotate(6.76 766.25 414.09)"/><rect x="754.42" y="445.58" width="30.69" height="38.07" rx="5" fill="#3D5A80" opacity="0.43" transform="rotate(-3.84 769.77 464.62)"/><rect x="805.91" y="44.85" width="42.32" height="42.07" rx="5" fill="#E8552E" opacity="0.28" transform="rotate(5.66 827.07 65.89)"/><rect x="801.26" y="103.55" width="38.13" height="44.32" rx="5" fill="#F2B705" opacity="0.33" transform="rotate(-3.93 820.32 125.71)"/><rect x="803.27" y="203.58" width="34.67" height="32.03" rx="5" fill="#E8552E" opacity="0.49" transform="rotate(-5.18 820.61 219.6)"/><rect x="798.99" y="254.57" width="35.12" height="43.54" rx="5" fill="#F2B705" opacity="0.49" transform="rotate(1.86 816.55 276.34)"/><rect x="795.84" y="302.99" width="30.71" height="40.64" rx="5" fill="#A50044" opacity="0.44" transform="rotate(2.2 811.2 323.31)"/><rect x="806.34" y="453.9" width="43.5" height="37.63" rx="5" fill="#F2B705" opacity="0.36" transform="rotate(7.6 828.09 472.72)"/></g>
  <rect width="800" height="450" fill="url(#vignetta)"/>
  <g transform="translate(400 185) scale(4.6) translate(-12 -12)" fill="none" color="#F2B705" stroke="#F2B705" stroke-width="1.6" stroke-linecap="round" stroke-linejoin="round"><path d="M14 6a3 3 0 1 1 6 0c0 1-.5 2-1.5 2.5L22 10h-3c0 4-3 7-7 7H6a4 4 0 0 1-4-4c0-2 1-3 3-3h4"/><circle cx="16.5" cy="5.5" r=".6" fill="currentColor"/></g>
  <text x="400" y="330" font-size="34" text-anchor="middle" fill="#F2E9DE" font-family="system-ui,-apple-system,sans-serif" font-weight="700">Barcelona Duck Store</text>
</svg>
